<?xml version="1.0" encoding="us-ascii" standalone="no"?><svg xmlns="http://www.w3.org/2000/svg" xmlns:xlink="http://www.w3.org/1999/xlink" contentStyleType="text/css" height="889px" preserveAspectRatio="none" style="width:1136px;height:889px;background:#FEFEFE;" version="1.1" viewBox="0 0 1136 889" width="1136px" zoomAndPan="magnify"><defs/><g><rect fill="#FEFEFE" height="889" style="stroke:none;stroke-width:1.0;" width="1136" x="0" y="0"/><text fill="#000000" font-family="sans-serif" font-size="14" font-weight="bold" lengthAdjust="spacing" textLength="279" x="421.5" y="22.9951">AS IS: Mooncake KVCache&#20256;&#36755;&#26550;&#26500;&#29616;&#29366;&#19982;&#30171;&#28857;</text><!--cluster store_mode--><g id="cluster_store_mode"><path d="M8.5,54.7969 L237.5,54.7969 A3.75,3.75 0 0 1 240,57.2969 L247,77.0938 L362.5,77.0938 A2.5,2.5 0 0 1 365,79.5938 L365,753.7969 A2.5,2.5 0 0 1 362.5,756.2969 L8.5,756.2969 A2.5,2.5 0 0 1 6,753.7969 L6,57.2969 A2.5,2.5 0 0 1 8.5,54.7969 " fill="#FFE4E4" style="stroke:#000000;stroke-width:1.5;"/><line style="stroke:#000000;stroke-width:1.5;" x1="6" x2="247" y1="77.0938" y2="77.0938"/><text fill="#000000" font-family="sans-serif" font-size="14" font-weight="bold" lengthAdjust="spacing" textLength="228" x="10" y="69.792">Store&#27169;&#24335; (Mooncake Store&#25968;&#25454;&#27969;)</text></g><!--cluster p2p_mode--><g id="cluster_p2p_mode"><path d="M391.5,43.2969 L665.5,43.2969 A3.75,3.75 0 0 1 668,45.7969 L675,65.5938 L675.5,65.5938 A2.5,2.5 0 0 1 678,68.0938 L678,388.7969 A2.5,2.5 0 0 1 675.5,391.2969 L391.5,391.2969 A2.5,2.5 0 0 1 389,388.7969 L389,45.7969 A2.5,2.5 0 0 1 391.5,43.2969 " fill="#FFFACD" style="stroke:#000000;stroke-width:1.5;"/><line style="stroke:#000000;stroke-width:1.5;" x1="389" x2="675" y1="65.5938" y2="65.5938"/><text fill="#000000" font-family="sans-serif" font-size="14" font-weight="bold" lengthAdjust="spacing" textLength="273" x="393" y="58.292">P2P&#30452;&#20256;&#27169;&#24335; (Ascend Direct Transport)</text></g><!--cluster missing--><g id="cluster_missing"><path d="M712.5,107.9369 L745.5,107.9369 A3.75,3.75 0 0 1 748,110.4369 L755,130.2338 L1126.5,130.2338 A2.5,2.5 0 0 1 1129,132.7338 L1129,571.7969 A2.5,2.5 0 0 1 1126.5,574.2969 L712.5,574.2969 A2.5,2.5 0 0 1 710,571.7969 L710,110.4369 A2.5,2.5 0 0 1 712.5,107.9369 " fill="#FFE4E1" style="stroke:#000000;stroke-width:1.5;"/><line style="stroke:#000000;stroke-width:1.5;" x1="710" x2="755" y1="130.2338" y2="130.2338"/><text fill="#000000" font-family="sans-serif" font-size="14" font-weight="bold" lengthAdjust="spacing" textLength="32" x="714" y="122.932">&#32570;&#22833;&#33021;&#21147;</text></g><!--entity prefill_hbm0--><g id="elem_prefill_hbm0"><rect fill="#F8B4B4" height="68.8906" rx="2.5" ry="2.5" style="stroke:#181818;stroke-width:0.5;" width="108" x="22" y="100.7969"/><text fill="#000000" font-family="sans-serif" font-size="14" lengthAdjust="spacing" textLength="52" x="32" y="123.792">Prefill&#33410;&#28857;</text><text fill="#000000" font-family="sans-serif" font-size="14" lengthAdjust="spacing" textLength="65" x="32" y="140.0889">NPU HBM</text><text fill="#000000" font-family="sans-serif" font-size="14" lengthAdjust="spacing" textLength="88" x="32" y="156.3857">(KVCache&#29983;&#20135;)</text></g><!--entity prefill_dram0--><g id="elem_prefill_dram0"><rect fill="#F8B4B4" height="68.8906" rx="2.5" ry="2.5" style="stroke:#181818;stroke-width:0.5;" width="134" x="22" y="306.2969"/><text fill="#000000" font-family="sans-serif" font-size="14" lengthAdjust="spacing" textLength="52" x="32" y="329.292">Prefill&#33410;&#28857;</text><text fill="#000000" font-family="sans-serif" font-size="14" lengthAdjust="spacing" textLength="78" x="32" y="345.5889">Host DRAM</text><text fill="#000000" font-family="sans-serif" font-size="14" lengthAdjust="spacing" textLength="114" x="32" y="361.8857">(Store Segment)</text></g><!--entity decode_dram0--><g id="elem_decode_dram0"><rect fill="#F8B4B4" height="68.8906" rx="2.5" ry="2.5" style="stroke:#181818;stroke-width:0.5;" width="134" x="22" y="489.2969"/><text fill="#000000" font-family="sans-serif" font-size="14" lengthAdjust="spacing" textLength="71" x="32" y="512.292">Decode&#33410;&#28857;</text><text fill="#000000" font-family="sans-serif" font-size="14" lengthAdjust="spacing" textLength="78" x="32" y="528.5889">Host DRAM</text><text fill="#000000" font-family="sans-serif" font-size="14" lengthAdjust="spacing" textLength="114" x="32" y="544.8857">(Store Segment)</text></g><!--entity decode_hbm0--><g id="elem_decode_hbm0"><rect fill="#F8B4B4" height="68.8906" rx="2.5" ry="2.5" style="stroke:#181818;stroke-width:0.5;" width="108" x="35" y="671.2969"/><text fill="#000000" font-family="sans-serif" font-size="14" lengthAdjust="spacing" textLength="71" x="45" y="694.292">Decode&#33410;&#28857;</text><text fill="#000000" font-family="sans-serif" font-size="14" lengthAdjust="spacing" textLength="65" x="45" y="710.5889">NPU HBM</text><text fill="#000000" font-family="sans-serif" font-size="14" lengthAdjust="spacing" textLength="88" x="45" y="726.8857">(KVCache&#28040;&#36153;)</text></g><g id="elem_GMN10"><path d="M165.5,89.7969 L165.5,131.2969 L130.09,135.2969 L165.5,139.2969 L165.5,181.1328 A0,0 0 0 0 165.5,181.1328 L348.5,181.1328 A0,0 0 0 0 348.5,181.1328 L348.5,99.7969 L338.5,89.7969 L165.5,89.7969 A0,0 0 0 0 165.5,89.7969 " fill="#FEFFDD" style="stroke:#181818;stroke-width:0.5;"/><path d="M338.5,89.7969 L338.5,99.7969 L348.5,99.7969 L338.5,89.7969 " fill="#FEFFDD" style="stroke:#181818;stroke-width:0.5;"/><text fill="#000000" font-family="sans-serif" font-size="11" font-weight="bold" lengthAdjust="spacing" textLength="76" x="171.5" y="105.0073">Store&#27169;&#24335;&#30171;&#28857;&#20998;&#26512;</text><line style="stroke:#181818;stroke-width:1.0;" x1="166.5" x2="347.5" y1="107.6016" y2="107.6016"/><text fill="#FF0000" font-family="sans-serif" font-size="13" lengthAdjust="spacing" textLength="44" x="171.5" y="123.6685">&#8226; 4&#36339;&#36335;&#24452;</text><text fill="#FF0000" font-family="sans-serif" font-size="13" lengthAdjust="spacing" textLength="107" x="171.5" y="138.8013">&#8226; &#24635;&#24310;&#36831;: ~15-25&#956;s</text><text fill="#FF0000" font-family="sans-serif" font-size="13" lengthAdjust="spacing" textLength="117" x="171.5" y="153.9341">&#8226; Store&#20869;&#23384;&#27744;&#22312;Host&#20391;</text><text fill="#FF0000" font-family="sans-serif" font-size="13" lengthAdjust="spacing" textLength="162" x="171.5" y="169.0669">&#8226; &#24378;&#21046;NPU&#8594;Host&#8594;RDMA&#20013;&#36716;</text></g><!--entity prefill_hbm1--><g id="elem_prefill_hbm1"><rect fill="#F0E68C" height="68.8906" rx="2.5" ry="2.5" style="stroke:#181818;stroke-width:0.5;" width="85" x="407.5" y="100.7969"/><text fill="#000000" font-family="sans-serif" font-size="14" lengthAdjust="spacing" textLength="52" x="417.5" y="123.792">Prefill&#33410;&#28857;</text><text fill="#000000" font-family="sans-serif" font-size="14" lengthAdjust="spacing" textLength="65" x="417.5" y="140.0889">NPU HBM</text><text fill="#000000" font-family="sans-serif" font-size="14" lengthAdjust="spacing" textLength="56" x="417.5" y="156.3857">(&#24050;&#27880;&#20876;MR)</text></g><!--entity decode_hbm1--><g id="elem_decode_hbm1"><rect fill="#F0E68C" height="68.8906" rx="2.5" ry="2.5" style="stroke:#181818;stroke-width:0.5;" width="91" x="407.5" y="306.2969"/><text fill="#000000" font-family="sans-serif" font-size="14" lengthAdjust="spacing" textLength="71" x="417.5" y="329.292">Decode&#33410;&#28857;</text><text fill="#000000" font-family="sans-serif" font-size="14" lengthAdjust="spacing" textLength="65" x="417.5" y="345.5889">NPU HBM</text><text fill="#000000" font-family="sans-serif" font-size="14" lengthAdjust="spacing" textLength="56" x="417.5" y="361.8857">(&#24050;&#27880;&#20876;MR)</text></g><g id="elem_GMN17"><path d="M527.5,78.2969 L527.5,131.2969 L492.73,135.2969 L527.5,139.2969 L527.5,192.7656 A0,0 0 0 0 527.5,192.7656 L658.5,192.7656 A0,0 0 0 0 658.5,192.7656 L658.5,88.2969 L648.5,78.2969 L527.5,78.2969 A0,0 0 0 0 527.5,78.2969 " fill="#FEFFDD" style="stroke:#181818;stroke-width:0.5;"/><path d="M648.5,78.2969 L648.5,88.2969 L658.5,88.2969 L648.5,78.2969 " fill="#FEFFDD" style="stroke:#181818;stroke-width:0.5;"/><text fill="#000000" font-family="sans-serif" font-size="11" font-weight="bold" lengthAdjust="spacing" textLength="66" x="533.5" y="93.5073">P2P&#27169;&#24335;&#24403;&#21069;&#29366;&#24577;</text><line style="stroke:#181818;stroke-width:1.0;" x1="528.5" x2="657.5" y1="96.1016" y2="96.1016"/><text fill="#FFA500" font-family="sans-serif" font-size="13" lengthAdjust="spacing" textLength="82" x="533.5" y="112.1685">&#8226; 1&#36339;&#36335;&#24452; (&#24050;&#36739;&#20248;)</text><text fill="#FFA500" font-family="sans-serif" font-size="13" lengthAdjust="spacing" textLength="77" x="533.5" y="127.3013">&#8226; &#21345;&#20391;RoCE&#30452;&#20256;</text><text fill="#FFA500" font-family="sans-serif" font-size="13" lengthAdjust="spacing" textLength="107" x="533.5" y="142.4341">&#8226; &#24310;&#36831;&#19978;&#38480;: ~5-10&#956;s</text><line style="stroke:#181818;stroke-width:1.0;" x1="528.5" x2="657.5" y1="149.5" y2="149.5"/><text fill="#FF4500" font-family="sans-serif" font-size="13" lengthAdjust="spacing" textLength="36" x="533.5" y="165.5669">&#20248;&#21270;&#31354;&#38388;:</text><text fill="#FF4500" font-family="sans-serif" font-size="13" lengthAdjust="spacing" textLength="110" x="533.5" y="180.6997">&#28789;&#34914;HCCP&#21487;&#38477;&#33267;&lt;1&#956;s</text></g><!--entity missing_gva--><g id="elem_missing_gva"><rect fill="#E8E8E8" height="36.2969" rx="2.5" ry="2.5" style="stroke:#181818;stroke-width:0.5;" width="81" x="913.5" y="322.7969"/><text fill="#000000" font-family="sans-serif" font-size="14" lengthAdjust="spacing" textLength="61" x="923.5" y="345.792">GVA&#32479;&#19968;&#32534;&#22336;</text></g><!--entity missing_hccp--><g id="elem_missing_hccp"><rect fill="#E8E8E8" height="52.5938" rx="2.5" ry="2.5" style="stroke:#181818;stroke-width:0.5;" width="75" x="1029.5" y="314.2969"/><text fill="#000000" font-family="sans-serif" font-size="14" lengthAdjust="spacing" textLength="55" x="1039.5" y="337.292">&#28789;&#34914;HCCP</text><text fill="#000000" font-family="sans-serif" font-size="14" lengthAdjust="spacing" textLength="32" x="1039.5" y="353.5889">&#35774;&#22791;&#30452;&#36830;</text></g><!--entity missing_tiered--><g id="elem_missing_tiered"><rect fill="#E8E8E8" height="52.5938" rx="2.5" ry="2.5" style="stroke:#181818;stroke-width:0.5;" width="67" x="920.5" y="497.2969"/><text fill="#000000" font-family="sans-serif" font-size="14" lengthAdjust="spacing" textLength="32" x="930.5" y="520.292">&#22810;&#32423;&#32531;&#23384;</text><text fill="#000000" font-family="sans-serif" font-size="14" lengthAdjust="spacing" textLength="47" x="930.5" y="536.5889">(L0-L4)</text></g><!--entity missing_path--><g id="elem_missing_path"><rect fill="#E8E8E8" height="36.2969" rx="2.5" ry="2.5" style="stroke:#181818;stroke-width:0.5;" width="68" x="1023" y="505.7969"/><text fill="#000000" font-family="sans-serif" font-size="14" lengthAdjust="spacing" textLength="48" x="1033" y="528.792">&#26234;&#33021;&#36335;&#24452;&#36873;&#25321;</text></g><g id="elem_GMN25"><path d="M734,295.2969 L734,386.6328 L878,386.6328 L878,305.2969 L868,295.2969 L734,295.2969 " fill="#FEFFDD" style="stroke:#181818;stroke-width:0.5;"/><path d="M868,295.2969 L868,305.2969 L878,305.2969 L868,295.2969 " fill="#FEFFDD" style="stroke:#181818;stroke-width:1.0;"/><text fill="#B22222" font-family="sans-serif" font-size="11" font-weight="bold" lengthAdjust="spacing" textLength="63" x="740" y="310.5073">&#32570;&#22833;&#33021;&#21147;&#23548;&#33268;&#30340;&#38382;&#39064;</text><line style="stroke:#181818;stroke-width:1.0;" x1="735" x2="877" y1="313.1016" y2="313.1016"/><text fill="#B22222" font-family="sans-serif" font-size="13" lengthAdjust="spacing" textLength="92" x="740" y="329.1685">&#8226; &#26080;&#36229;&#33410;&#28857;&#20869;&#20122;&#24494;&#31186;&#30452;&#36830;</text><text fill="#B22222" font-family="sans-serif" font-size="13" lengthAdjust="spacing" textLength="123" x="740" y="344.3013">&#8226; &#32531;&#23384;&#21629;&#20013;&#29575;&#20302; (60-70%)</text><text fill="#B22222" font-family="sans-serif" font-size="13" lengthAdjust="spacing" textLength="92" x="740" y="359.4341">&#8226; &#36335;&#24452;&#36873;&#25321;&#38745;&#24577;&#26080;&#33258;&#36866;&#24212;</text><text fill="#B22222" font-family="sans-serif" font-size="13" lengthAdjust="spacing" textLength="92" x="740" y="374.5669">&#8226; &#36328;&#33410;&#28857;&#22320;&#22336;&#36716;&#25442;&#24320;&#38144;&#22823;</text></g><!--link prefill_hbm0 to prefill_dram0--><g id="link_prefill_hbm0_prefill_dram0"><path d="M78.15,169.8969 C80.56,207.6069 84.0575,262.4291 86.4675,300.1591 " fill="none" id="prefill_hbm0-to-prefill_dram0" style="stroke:#FF0000;stroke-width:3.0;"/><polygon fill="#FF0000" points="86.85,306.1469,90.2682,296.9102,86.5313,301.157,82.2844,297.4202,86.85,306.1469" style="stroke:#FF0000;stroke-width:3.0;"/><text fill="#000000" font-family="sans-serif" font-size="12" font-weight="bold" lengthAdjust="spacing" textLength="80" x="85" y="234.4355">&#9312; PCIe DMA</text><text fill="#000000" font-family="sans-serif" font-size="13" lengthAdjust="spacing" textLength="34" x="108" y="249.3325">~2&#956;s</text><text fill="#FF0000" font-family="sans-serif" font-size="11" lengthAdjust="spacing" textLength="62" x="94" y="262.6089">&#30171;&#28857;: Host&#20013;&#36716;</text></g><!--link prefill_dram0 to decode_dram0--><g id="link_prefill_dram0_decode_dram0"><path d="M89,375.4169 C89,407.8269 89,450.5969 89,483.0469 " fill="none" id="prefill_dram0-to-decode_dram0" style="stroke:#FF0000;stroke-width:3.0;"/><polygon fill="#FF0000" points="89,489.0469,93,480.0469,89,484.0469,85,480.0469,89,489.0469" style="stroke:#FF0000;stroke-width:3.0;"/><text fill="#000000" font-family="sans-serif" font-size="12" font-weight="bold" lengthAdjust="spacing" textLength="54" x="106" y="428.4355">&#9313; RDMA</text><text fill="#000000" font-family="sans-serif" font-size="13" lengthAdjust="spacing" textLength="55" x="105.5" y="443.3325">~5-10&#956;s</text><text fill="#FF0000" font-family="sans-serif" font-size="11" lengthAdjust="spacing" textLength="86" x="90" y="456.6089">&#30171;&#28857;: Host&#20391;RDMA</text></g><!--link decode_dram0 to decode_hbm0--><g id="link_decode_dram0_decode_hbm0"><path d="M89,558.6569 C89,590.8369 89,632.9569 89,665.0969 " fill="none" id="decode_dram0-to-decode_hbm0" style="stroke:#FF0000;stroke-width:3.0;"/><polygon fill="#FF0000" points="89,671.0969,93,662.0969,89,666.0969,85,662.0969,89,671.0969" style="stroke:#FF0000;stroke-width:3.0;"/><text fill="#000000" font-family="sans-serif" font-size="12" font-weight="bold" lengthAdjust="spacing" textLength="80" x="90" y="610.4355">&#9314; PCIe DMA</text><text fill="#000000" font-family="sans-serif" font-size="13" lengthAdjust="spacing" textLength="34" x="113" y="625.3325">~2&#956;s</text><text fill="#FF0000" font-family="sans-serif" font-size="11" lengthAdjust="spacing" textLength="76" x="92" y="638.6089">&#30171;&#28857;: &#20877;&#27425;Host&#20013;&#36716;</text></g><!--link prefill_hbm1 to decode_hbm1--><g id="link_prefill_hbm1_decode_hbm1"><path d="M450.5,169.8969 C451.05,207.6069 451.8625,262.4175 452.4125,300.1475 " fill="none" id="prefill_hbm1-to-decode_hbm1" style="stroke:#FFA500;stroke-width:3.0;"/><polygon fill="#FFA500" points="452.5,306.1469,456.3684,297.0895,452.4271,301.1474,448.3692,297.2061,452.5,306.1469" style="stroke:#FFA500;stroke-width:3.0;"/><text fill="#000000" font-family="sans-serif" font-size="12" font-weight="bold" lengthAdjust="spacing" textLength="93" x="452" y="234.4355">&#21345;&#20391;RoCE RDMA</text><text fill="#000000" font-family="sans-serif" font-size="13" lengthAdjust="spacing" textLength="55" x="471" y="249.3325">~5-10&#956;s</text><text fill="#FF8C00" font-family="sans-serif" font-size="11" lengthAdjust="spacing" textLength="50" x="473.5" y="262.6089">&#24403;&#21069;: 1&#36339;&#21487;&#36798;</text></g><!--link missing to GMN25--><g id="link_missing_GMN25"><path d="M806,136.4469 C806,140.7069 806,236.2869 806,294.8669 " fill="none" id="missing-GMN25" style="stroke:#666666;stroke-width:1.0;stroke-dasharray:7.0,7.0;"/></g><rect fill="none" height="95.4844" id="_legend" rx="7.5" ry="7.5" style="stroke:#000000;stroke-width:1.0;" width="129" x="496.5" y="774.2969"/><text fill="#000000" font-family="sans-serif" font-size="14" font-weight="bold" lengthAdjust="spacing" textLength="32" x="501.5" y="792.292">&#30171;&#28857;&#27719;&#24635;</text><text fill="#000000" font-family="sans-serif" font-size="14" font-weight="bold" lengthAdjust="spacing" textLength="16" x="506.5" y="810.5889">&#39068;&#33394;</text><text fill="#000000" font-family="sans-serif" font-size="14" font-weight="bold" lengthAdjust="spacing" textLength="16" x="532.5" y="810.5889">&#21547;&#20041;</text><text fill="#000000" font-family="sans-serif" font-size="14" lengthAdjust="spacing" textLength="4" x="501.5" y="826.8857">&#160;</text><text fill="#FF0000" font-family="sans-serif" font-size="14" lengthAdjust="spacing" textLength="16" x="505.5" y="826.8857">&#32418;&#33394;</text><text fill="#000000" font-family="sans-serif" font-size="14" lengthAdjust="spacing" textLength="4" x="521.5" y="826.8857">&#160;</text><text fill="#000000" font-family="sans-serif" font-size="14" lengthAdjust="spacing" textLength="85" x="531.5" y="826.8857">Store&#27169;&#24335;&#30171;&#28857;&#36339;&#27493;</text><text fill="#000000" font-family="sans-serif" font-size="14" lengthAdjust="spacing" textLength="4" x="501.5" y="843.1826">&#160;</text><text fill="#FFA500" font-family="sans-serif" font-size="14" lengthAdjust="spacing" textLength="16" x="505.5" y="843.1826">&#27225;&#33394;</text><text fill="#000000" font-family="sans-serif" font-size="14" lengthAdjust="spacing" textLength="4" x="521.5" y="843.1826">&#160;</text><text fill="#000000" font-family="sans-serif" font-size="14" lengthAdjust="spacing" textLength="75" x="531.5" y="843.1826">P2P&#27169;&#24335;&#20248;&#21270;&#31354;&#38388;</text><text fill="#000000" font-family="sans-serif" font-size="14" lengthAdjust="spacing" textLength="4" x="501.5" y="859.4795">&#160;</text><text fill="#B22222" font-family="sans-serif" font-size="14" lengthAdjust="spacing" textLength="16" x="505.5" y="859.4795">&#28145;&#32418;</text><text fill="#000000" font-family="sans-serif" font-size="14" lengthAdjust="spacing" textLength="4" x="521.5" y="859.4795">&#160;</text><text fill="#000000" font-family="sans-serif" font-size="14" lengthAdjust="spacing" textLength="32" x="531.5" y="859.4795">&#32570;&#22833;&#33021;&#21147;</text><line style="stroke:#000000;stroke-width:1.0;" x1="501.5" x2="620.5" y1="797.5938" y2="797.5938"/><line style="stroke:#000000;stroke-width:1.0;" x1="501.5" x2="620.5" y1="813.8906" y2="813.8906"/><line style="stroke:#000000;stroke-width:1.0;" x1="501.5" x2="620.5" y1="830.1875" y2="830.1875"/><line style="stroke:#000000;stroke-width:1.0;" x1="501.5" x2="620.5" y1="846.4844" y2="846.4844"/><line style="stroke:#000000;stroke-width:1.0;" x1="501.5" x2="620.5" y1="862.7813" y2="862.7813"/><line style="stroke:#000000;stroke-width:1.0;" x1="501.5" x2="501.5" y1="797.5938" y2="862.7813"/><line style="stroke:#000000;stroke-width:1.0;" x1="527.5" x2="527.5" y1="797.5938" y2="862.7813"/><line style="stroke:#000000;stroke-width:1.0;" x1="620.5" x2="620.5" y1="797.5938" y2="862.7813"/><!--SRC=[bLPjJzjM5FwUNt77D0cYHSHPO2XA8uKGIZMe8kZwPKp8E6uIaTYHxMvgrrM1KWAieRImybeA4HEmbRT20uIG_eFz29HhE_zYnoz9xBoCSFqX93xFSyzzpdFEvQiW_IZ2q6ZGxtlWlN-ttu-eACdp5Wi_5c7Y94V6q2X9ZOKuzZ4JzB5HbaDVz_gLnn11iR4uoz2CC2GyYTA8eoc1P49HsX12SXpxguxlL5SzV7VrLlukvJ64nY623D4rWRqTocEn2141Ch1QlKFetf0B3R0iGv5ZDFhXeO-amdGXjodd5yIDZBWnASqTIREPmlcSjBGcJLnOhHQBpevQXWIMeyNTBPnxZLhB9DglVnw9gGFnytXR2o9vn2k_ZSJO80r9zFgTVYVwpM91iCeoe9O01of7e_Bi16mqpDmF_8ZwkWU6cLOzBMdnGo6xen76jTYHy6ZC3fHTtSvkvmryVImle9v1hyAeveY6w50Cz3Gp1a70XfGzD0LdQ98ng0RVXh3co69cMZwzCD6PJgpIcRIm_GG2ss5zAuGZr1X3y_oTxtwsUQhEvq9kFlAKTX4EZzLw_MOJ1NptQDGpuBLQXvddZdzp_32ZHn0UDwNOnyNHGO_c0XTIZbuutvUlFhhRrRSUKohQ9WrpCIbJbSeM6YobqM4ZxCrbajzHGAPKJ7lSb8agNLKYwTjgWgTIuiUjEige-J2i04qV2OK5n3uorKnzhQmA-QZ7q5iQFvwU4ZVctUsZ7dUx4kSfmsomAXoLlAuJQUIKpqxaiqESdpI9KoTIJ5pYoupyvOCBFISwR8uEEEzD63L9FFKIxo-BnvjuVLSlnaqudClYwGou_NhghGA13wL-TGn5Cq5LESllXhaJS0IajLEOKgNPu-Kf9R0dedGMUi2H31zdkL9ZE-BboTFhzVNSPlBWiq_YoIwUUZKmM3Dt222q-pkxVCtsT0rPnNmLhkgE9ZJlUZl-pxk4sRiujQLq1ElpDz5BGDxbiziz-6e1pwHSY037uDU7SZxVf7-9klw56cdLqNZX3X4JuyswbuKAXcZLAaJPm4WHKCw_AEIMsnePp02iYA1vfHc8wl_2-MnnPHwwG9Ui1bWlOr3H2INoG7BurJjfBrjSEdKrsh8KB8r_bhVIVJvV00GlhgJav8cRgDwnRWT8q43Rn_ABApoxfbef5k7v21FIRrUYZiVlFlHAbt2uX9HxXzydZAYHq2za-R-8AbWbns56FiZZxIJ8AN_PCE7351LlH82tLwNiZfHRW241JT1lj_Kxsqne8KB3O6Y45rUoS4xD0iN4ZFZ7dWaS9uLm6LenwYWh26nCSQeUMCUaUZ6w7SfIF6jK5H_cvEIfj3fPN3eeffSrvsfbQSR19LPriYvjofcNsZo0OLd8hkByWRJpLXEoeKaC39fw-CqLJ4XfBbcucaEjdNRRz_Plsfg16yKhlb-1HbHIIlvTJ4pWx69p3Bjw_kj7O1wOqc8gZNE9uc82R-yqz6kK3YbVjM9O3EexLRdLUqqyJiBLKpqPdjr1nVIwFFD9-GlF_rEuc47Fj3V6oqJAfY6cj3-ygxasONo8-tzLO_Mc5_TMpF3or3BsSJMu98nuTWpx6z16_m08Zgu9OFaF]--></g></svg>