<?xml version="1.0" encoding="us-ascii" standalone="no"?><svg xmlns="http://www.w3.org/2000/svg" xmlns:xlink="http://www.w3.org/1999/xlink" contentStyleType="text/css" height="1094px" preserveAspectRatio="none" style="width:2988px;height:1094px;background:#FEFEFE;" version="1.1" viewBox="0 0 2988 1094" width="2988px" zoomAndPan="magnify"><defs/><g><rect fill="#FEFEFE" height="1094" style="stroke:none;stroke-width:1.0;" width="2988" x="0" y="0"/><text fill="#000000" font-family="Helvetica" font-size="22" font-weight="bold" lengthAdjust="spacing" textLength="871" x="1054.25" y="41.4209">Mooncake: KVCache-Centric Disaggregated LLM Serving Architecture</text><!--cluster ENGINES--><g id="cluster_ENGINES"><path d="M16,69.6094 L169,69.6094 A7.5,7.5 0 0 1 174,74.6094 L181,100.4141 L441,100.4141 A5,5 0 0 1 446,105.4141 L446,456.6094 A5,5 0 0 1 441,461.6094 L16,461.6094 A5,5 0 0 1 11,456.6094 L11,74.6094 A5,5 0 0 1 16,69.6094 " fill="#E8F5E9" style="stroke:#000000;stroke-width:1.0;"/><line style="stroke:#000000;stroke-width:1.0;" x1="11" x2="181" y1="100.4141" y2="100.4141"/><text fill="#000000" font-family="Helvetica" font-size="11" font-weight="bold" lengthAdjust="spacing" textLength="145" x="21" y="87.8198">LLM Inference Engines</text></g><!--cluster STORE--><g id="cluster_STORE"><path d="M483,290.6094 L594,290.6094 A7.5,7.5 0 0 1 599,295.6094 L606,321.4141 L1159,321.4141 A5,5 0 0 1 1164,326.4141 L1164,747.6094 A5,5 0 0 1 1159,752.6094 L483,752.6094 A5,5 0 0 1 478,747.6094 L478,295.6094 A5,5 0 0 1 483,290.6094 " fill="#E3F2FD" style="stroke:#000000;stroke-width:1.0;"/><line style="stroke:#000000;stroke-width:1.0;" x1="478" x2="606" y1="321.4141" y2="321.4141"/><text fill="#000000" font-family="Helvetica" font-size="11" font-weight="bold" lengthAdjust="spacing" textLength="103" x="488" y="308.8198">Mooncake Store</text></g><!--cluster TIERS--><g id="cluster_TIERS"><path d="M678,576.6094 C678,566.6094 909,566.6094 909,566.6094 C909,566.6094 1140,566.6094 1140,576.6094 L1140,703.6094 C1140,713.6094 909,713.6094 909,713.6094 C909,713.6094 678,713.6094 678,703.6094 L678,576.6094 " fill="#FFFFFF" style="stroke:#000000;stroke-width:1.0;"/><path d="M678,576.6094 C678,586.6094 909,586.6094 909,586.6094 C909,586.6094 1140,586.6094 1140,576.6094 " fill="none" style="stroke:#000000;stroke-width:1.0;"/><text fill="#000000" font-family="Helvetica" font-size="11" font-weight="bold" lengthAdjust="spacing" textLength="86" x="866" y="604.8198">Memory Tiers</text></g><!--cluster TE--><g id="cluster_TE"><path d="M1193,290.6094 L1372,290.6094 A7.5,7.5 0 0 1 1377,295.6094 L1384,321.4141 L2218,321.4141 A5,5 0 0 1 2223,326.4141 L2223,774.6094 A5,5 0 0 1 2218,779.6094 L1193,779.6094 A5,5 0 0 1 1188,774.6094 L1188,295.6094 A5,5 0 0 1 1193,290.6094 " fill="#FFF3E0" style="stroke:#000000;stroke-width:1.0;"/><line style="stroke:#000000;stroke-width:1.0;" x1="1188" x2="1384" y1="321.4141" y2="321.4141"/><text fill="#000000" font-family="Helvetica" font-size="11" font-weight="bold" lengthAdjust="spacing" textLength="171" x="1198" y="308.8198">Mooncake Transfer Engine</text></g><!--cluster BACKENDS--><g id="cluster_BACKENDS"><path d="M1225,562.6094 L1361,562.6094 A7.5,7.5 0 0 1 1366,567.6094 L1373,593.4141 L2186,593.4141 A5,5 0 0 1 2191,598.4141 L2191,742.6094 A5,5 0 0 1 2186,747.6094 L1225,747.6094 A5,5 0 0 1 1220,742.6094 L1220,567.6094 A5,5 0 0 1 1225,562.6094 " fill="#FFE0B2" style="stroke:#000000;stroke-width:1.0;"/><line style="stroke:#000000;stroke-width:1.0;" x1="1220" x2="1373" y1="593.4141" y2="593.4141"/><text fill="#000000" font-family="Helvetica" font-size="11" font-weight="bold" lengthAdjust="spacing" textLength="128" x="1230" y="580.8198">Transport Backends</text></g><!--cluster HW--><g id="cluster_HW"><path d="M1482,837.6094 L1617,837.6094 A7.5,7.5 0 0 1 1622,842.6094 L1629,868.4141 L2196,868.4141 A5,5 0 0 1 2201,873.4141 L2201,962.6094 A5,5 0 0 1 2196,967.6094 L1482,967.6094 A5,5 0 0 1 1477,962.6094 L1477,842.6094 A5,5 0 0 1 1482,837.6094 " fill="#F3E5F5" style="stroke:#000000;stroke-width:1.0;"/><line style="stroke:#000000;stroke-width:1.0;" x1="1477" x2="1629" y1="868.4141" y2="868.4141"/><text fill="#000000" font-family="Helvetica" font-size="11" font-weight="bold" lengthAdjust="spacing" textLength="127" x="1487" y="855.8198">Hardware Platforms</text></g><!--cluster CN--><g id="cluster_CN"><path d="M2252,557.6094 L2422,557.6094 A7.5,7.5 0 0 1 2427,562.6094 L2434,588.4141 L2474,588.4141 A5,5 0 0 1 2479,593.4141 L2479,747.6094 A5,5 0 0 1 2474,752.6094 L2252,752.6094 A5,5 0 0 1 2247,747.6094 L2247,562.6094 A5,5 0 0 1 2252,557.6094 " fill="#E0F7FA" style="stroke:#000000;stroke-width:1.0;"/><line style="stroke:#000000;stroke-width:1.0;" x1="2247" x2="2434" y1="588.4141" y2="588.4141"/><text fill="#000000" font-family="Helvetica" font-size="11" font-weight="bold" lengthAdjust="spacing" textLength="162" x="2257" y="575.8198">Cloud-Native Distribution</text></g><!--entity vLLM--><g id="elem_vLLM"><rect fill="#FFFFFF" height="57.6094" rx="5" ry="5" style="stroke:#000000;stroke-width:1.0;" width="108" x="35" y="147.6094"/><text fill="#000000" font-family="Helvetica" font-size="11" lengthAdjust="spacing" textLength="27" x="51" y="173.8198">vLLM</text><text fill="#000000" font-family="Helvetica" font-size="11" lengthAdjust="spacing" textLength="76" x="51" y="186.6245">KV Connector</text></g><!--entity SGLang--><g id="elem_SGLang"><rect fill="#FFFFFF" height="57.6094" rx="5" ry="5" style="stroke:#000000;stroke-width:1.0;" width="78" x="178" y="147.6094"/><text fill="#000000" font-family="Helvetica" font-size="11" lengthAdjust="spacing" textLength="44" x="194" y="173.8198">SGLang</text><text fill="#000000" font-family="Helvetica" font-size="11" lengthAdjust="spacing" textLength="46" x="194" y="186.6245">HiCache</text></g><!--entity TRT--><g id="elem_TRT"><rect fill="#FFFFFF" height="44.8047" rx="5" ry="5" style="stroke:#000000;stroke-width:1.0;" width="111" x="291.5" y="154.1094"/><text fill="#000000" font-family="Helvetica" font-size="11" lengthAdjust="spacing" textLength="79" x="307.5" y="180.3198">TensorRT-LLM</text></g><!--entity LMC--><g id="elem_LMC"><rect fill="#FFFFFF" height="44.8047" rx="5" ry="5" style="stroke:#000000;stroke-width:1.0;" width="82" x="48" y="392.6094"/><text fill="#000000" font-family="Helvetica" font-size="11" lengthAdjust="spacing" textLength="50" x="64" y="418.8198">LMCache</text></g><!--entity LMD--><g id="elem_LMD"><rect fill="#FFFFFF" height="44.8047" rx="5" ry="5" style="stroke:#000000;stroke-width:1.0;" width="85" x="165.5" y="392.6094"/><text fill="#000000" font-family="Helvetica" font-size="11" lengthAdjust="spacing" textLength="53" x="181.5" y="418.8198">LMDeploy</text></g><!--entity MASTER--><g id="elem_MASTER"><rect fill="#BBDEFB" height="108.8281" rx="5" ry="5" style="stroke:#000000;stroke-width:1.0;" width="165" x="494.5" y="627.6094"/><text fill="#000000" font-family="Helvetica" font-size="11" lengthAdjust="spacing" textLength="85" x="510.5" y="653.8198">Master Service</text><text fill="#000000" font-family="Helvetica" font-size="11" lengthAdjust="spacing" textLength="91" x="510.5" y="666.6245">&#9472;&#9472;&#9472;&#9472;&#9472;&#9472;&#9472;&#9472;&#9472;&#9472;&#9472;&#9472;&#9472;</text><text fill="#000000" font-family="Helvetica" font-size="11" lengthAdjust="spacing" textLength="120" x="510.5" y="679.4292">&#8226; Object Space Mgmt</text><text fill="#000000" font-family="Helvetica" font-size="11" lengthAdjust="spacing" textLength="126" x="510.5" y="692.2339">&#8226; Replica Coordination</text><text fill="#000000" font-family="Helvetica" font-size="11" lengthAdjust="spacing" textLength="133" x="510.5" y="705.0386">&#8226; Metadata (etcd/Redis)</text><text fill="#000000" font-family="Helvetica" font-size="11" lengthAdjust="spacing" textLength="103" x="510.5" y="717.8433">&#8226; HA (in progress)</text></g><!--entity CLIENT--><g id="elem_CLIENT"><rect fill="#BBDEFB" height="108.8281" rx="5" ry="5" style="stroke:#000000;stroke-width:1.0;" width="149" x="666.5" y="360.6094"/><text fill="#000000" font-family="Helvetica" font-size="11" lengthAdjust="spacing" textLength="67" x="682.5" y="386.8198">Store Client</text><text fill="#000000" font-family="Helvetica" font-size="11" lengthAdjust="spacing" textLength="91" x="682.5" y="399.6245">&#9472;&#9472;&#9472;&#9472;&#9472;&#9472;&#9472;&#9472;&#9472;&#9472;&#9472;&#9472;&#9472;</text><text fill="#000000" font-family="Helvetica" font-size="11" lengthAdjust="spacing" textLength="117" x="682.5" y="412.4292">&#8226; Put / Get / Remove</text><text fill="#000000" font-family="Helvetica" font-size="11" lengthAdjust="spacing" textLength="78" x="682.5" y="425.2339">&#8226; Multi-replica</text><text fill="#000000" font-family="Helvetica" font-size="11" lengthAdjust="spacing" textLength="105" x="682.5" y="438.0386">&#8226; Lease Protection</text><text fill="#000000" font-family="Helvetica" font-size="11" lengthAdjust="spacing" textLength="54" x="682.5" y="450.8433">&#8226; Soft Pin</text></g><!--entity L1--><g id="elem_L1"><rect fill="#FFCDD2" height="30.8047" rx="5" ry="5" style="stroke:#000000;stroke-width:1.0;" width="111" x="694.5" y="666.6094"/><text fill="#000000" font-family="Helvetica" font-size="11" lengthAdjust="spacing" textLength="79" x="710.5" y="685.8198">L1: GPU VRAM</text></g><!--entity L2--><g id="elem_L2"><rect fill="#FFF9C4" height="30.8047" rx="5" ry="5" style="stroke:#000000;stroke-width:1.0;" width="111" x="840.5" y="666.6094"/><text fill="#000000" font-family="Helvetica" font-size="11" lengthAdjust="spacing" textLength="79" x="856.5" y="685.8198">L2: CPU DRAM</text></g><!--entity L3--><g id="elem_L3"><rect fill="#C8E6C9" height="30.8047" rx="5" ry="5" style="stroke:#000000;stroke-width:1.0;" width="137" x="986.5" y="666.6094"/><text fill="#000000" font-family="Helvetica" font-size="11" lengthAdjust="spacing" textLength="105" x="1002.5" y="685.8198">L3: SSD / NVMe-oF</text></g><!--entity TRANSPORT--><g id="elem_TRANSPORT"><rect fill="#FFE0B2" height="108.8281" rx="5" ry="5" style="stroke:#000000;stroke-width:1.0;" width="232" x="1204" y="360.6094"/><text fill="#000000" font-family="Helvetica" font-size="11" lengthAdjust="spacing" textLength="124" x="1220" y="386.8198">Transport Abstraction</text><text fill="#000000" font-family="Helvetica" font-size="11" lengthAdjust="spacing" textLength="91" x="1220" y="399.6245">&#9472;&#9472;&#9472;&#9472;&#9472;&#9472;&#9472;&#9472;&#9472;&#9472;&#9472;&#9472;&#9472;</text><text fill="#000000" font-family="Helvetica" font-size="11" lengthAdjust="spacing" textLength="200" x="1220" y="412.4292">&#8226; Segment (unified address space)</text><text fill="#000000" font-family="Helvetica" font-size="11" lengthAdjust="spacing" textLength="184" x="1220" y="425.2339">&#8226; BatchTransfer (scatter/gather)</text><text fill="#000000" font-family="Helvetica" font-size="11" lengthAdjust="spacing" textLength="185" x="1220" y="438.0386">&#8226; Topology-aware Path Selection</text><text fill="#000000" font-family="Helvetica" font-size="11" lengthAdjust="spacing" textLength="131" x="1220" y="450.8433">&#8226; Multi-NIC Aggregation</text></g><!--entity RDMA--><g id="elem_RDMA"><rect fill="#FFFFFF" height="83.2188" rx="5" ry="5" style="stroke:#000000;stroke-width:1.0;" width="98" x="1400" y="640.6094"/><text fill="#000000" font-family="Helvetica" font-size="11" lengthAdjust="spacing" textLength="31" x="1416" y="666.8198">RDMA</text><text fill="#000000" font-family="Helvetica" font-size="11" lengthAdjust="spacing" textLength="61" x="1416" y="679.6245">IB/RoCEv2/</text><text fill="#000000" font-family="Helvetica" font-size="11" lengthAdjust="spacing" textLength="66" x="1416" y="692.4292">eRDMA/GPU</text><text fill="#000000" font-family="Helvetica" font-size="11" lengthAdjust="spacing" textLength="33" x="1416" y="705.2339">Direct</text></g><!--entity NVL--><g id="elem_NVL"><rect fill="#FFFFFF" height="70.4141" rx="5" ry="5" style="stroke:#000000;stroke-width:1.0;" width="90" x="1533" y="647.1094"/><text fill="#000000" font-family="Helvetica" font-size="11" lengthAdjust="spacing" textLength="37" x="1549" y="673.3198">NVLink</text><text fill="#000000" font-family="Helvetica" font-size="11" lengthAdjust="spacing" textLength="58" x="1549" y="686.1245">Intra-node</text><text fill="#000000" font-family="Helvetica" font-size="11" lengthAdjust="spacing" textLength="52" x="1549" y="698.9292">GPU-GPU</text></g><!--entity ASCEND--><g id="elem_ASCEND"><rect fill="#FFFFFF" height="70.4141" rx="5" ry="5" style="stroke:#000000;stroke-width:1.0;" width="110" x="2057" y="647.1094"/><text fill="#000000" font-family="Helvetica" font-size="11" lengthAdjust="spacing" textLength="78" x="2073" y="673.3198">Ascend Direct</text><text fill="#000000" font-family="Helvetica" font-size="11" lengthAdjust="spacing" textLength="56" x="2073" y="686.1245">HIXL/ADXL</text><text fill="#000000" font-family="Helvetica" font-size="11" lengthAdjust="spacing" textLength="50" x="2073" y="698.9292">NPU-NPU</text></g><!--entity HIP--><g id="elem_HIP"><rect fill="#FFFFFF" height="70.4141" rx="5" ry="5" style="stroke:#000000;stroke-width:1.0;" width="95" x="1926.5" y="647.1094"/><text fill="#000000" font-family="Helvetica" font-size="11" lengthAdjust="spacing" textLength="18" x="1942.5" y="673.3198">HIP</text><text fill="#000000" font-family="Helvetica" font-size="11" lengthAdjust="spacing" textLength="63" x="1942.5" y="686.1245">AMD ROCm</text><text fill="#000000" font-family="Helvetica" font-size="11" lengthAdjust="spacing" textLength="24" x="1942.5" y="698.9292">GPU</text></g><!--entity CXL--><g id="elem_CXL"><rect fill="#FFFFFF" height="57.6094" rx="5" ry="5" style="stroke:#000000;stroke-width:1.0;" width="104" x="1787" y="653.1094"/><text fill="#000000" font-family="Helvetica" font-size="11" lengthAdjust="spacing" textLength="29" x="1803" y="679.3198">CXL /</text><text fill="#000000" font-family="Helvetica" font-size="11" lengthAdjust="spacing" textLength="72" x="1803" y="692.1245">Shared Mem</text></g><!--entity NVME--><g id="elem_NVME"><rect fill="#FFFFFF" height="57.6094" rx="5" ry="5" style="stroke:#000000;stroke-width:1.0;" width="94" x="1658" y="653.1094"/><text fill="#000000" font-family="Helvetica" font-size="11" lengthAdjust="spacing" textLength="48" x="1674" y="679.3198">NVMe-oF</text><text fill="#000000" font-family="Helvetica" font-size="11" lengthAdjust="spacing" textLength="62" x="1674" y="692.1245">SSD Fabric</text></g><!--entity UB--><g id="elem_UB"><rect fill="#E1BEE7" height="70.4141" rx="5" ry="5" style="stroke:#000000;stroke-width:1.0;" width="102" x="1263" y="647.1094"/><text fill="#000000" font-family="Helvetica" font-size="11" lengthAdjust="spacing" textLength="51" x="1279" y="673.3198">UB/URMA</text><text fill="#000000" font-family="Helvetica" font-size="11" lengthAdjust="spacing" textLength="37" x="1279" y="686.1245">Lingqu</text><text fill="#000000" font-family="Helvetica" font-size="11" lengthAdjust="spacing" textLength="70" x="1279" y="698.9292">(RFC #1773)</text></g><!--entity NVIDIA--><g id="elem_NVIDIA"><rect fill="#CE93D8" height="43.6094" rx="5" ry="5" style="stroke:#000000;stroke-width:1.0;" width="120" x="1765" y="907.6094"/><text fill="#000000" font-family="Helvetica" font-size="11" lengthAdjust="spacing" textLength="64" x="1781" y="926.8198">NVIDIA GPU</text><text fill="#000000" font-family="Helvetica" font-size="11" lengthAdjust="spacing" textLength="88" x="1781" y="939.6245">(H100/H20/A10)</text></g><!--entity ASCENDHW--><g id="elem_ASCENDHW"><rect fill="#CE93D8" height="43.6094" rx="5" ry="5" style="stroke:#000000;stroke-width:1.0;" width="145" x="2039.5" y="907.6094"/><text fill="#000000" font-family="Helvetica" font-size="11" lengthAdjust="spacing" textLength="68" x="2055.5" y="926.8198">Ascend NPU</text><text fill="#000000" font-family="Helvetica" font-size="11" lengthAdjust="spacing" textLength="113" x="2055.5" y="939.6245">910C(A3)/950DT(A5)</text></g><!--entity AMD--><g id="elem_AMD"><rect fill="#CE93D8" height="43.6094" rx="5" ry="5" style="stroke:#000000;stroke-width:1.0;" width="84" x="1920" y="907.6094"/><text fill="#000000" font-family="Helvetica" font-size="11" lengthAdjust="spacing" textLength="52" x="1936" y="926.8198">AMD GPU</text><text fill="#000000" font-family="Helvetica" font-size="11" lengthAdjust="spacing" textLength="43" x="1936" y="939.6245">(ROCm)</text></g><!--entity MTHREADS--><g id="elem_MTHREADS"><rect fill="#CE93D8" height="43.6094" rx="5" ry="5" style="stroke:#000000;stroke-width:1.0;" width="93" x="1636.5" y="907.6094"/><text fill="#000000" font-family="Helvetica" font-size="11" lengthAdjust="spacing" textLength="61" x="1652.5" y="926.8198">MTHREADS</text><text fill="#000000" font-family="Helvetica" font-size="11" lengthAdjust="spacing" textLength="40" x="1652.5" y="939.6245">(MUSA)</text></g><!--entity KUNPENG--><g id="elem_KUNPENG"><rect fill="#CE93D8" height="43.6094" rx="5" ry="5" style="stroke:#000000;stroke-width:1.0;" width="108" x="1493" y="907.6094"/><text fill="#000000" font-family="Helvetica" font-size="11" lengthAdjust="spacing" textLength="76" x="1509" y="926.8198">Kunpeng CPU</text><text fill="#000000" font-family="Helvetica" font-size="11" lengthAdjust="spacing" textLength="67" x="1509" y="939.6245">+ UB Fabric</text></g><!--entity INFERNEX--><g id="elem_INFERNEX"><rect fill="#B2EBF2" height="108.8281" rx="5" ry="5" style="stroke:#000000;stroke-width:1.0;" width="200" x="2263" y="627.6094"/><text fill="#000000" font-family="Helvetica" font-size="11" lengthAdjust="spacing" textLength="86" x="2279" y="653.8198">InferNex / xPyD</text><text fill="#000000" font-family="Helvetica" font-size="11" lengthAdjust="spacing" textLength="91" x="2279" y="666.6245">&#9472;&#9472;&#9472;&#9472;&#9472;&#9472;&#9472;&#9472;&#9472;&#9472;&#9472;&#9472;&#9472;</text><text fill="#000000" font-family="Helvetica" font-size="11" lengthAdjust="spacing" textLength="134" x="2279" y="679.4292">&#8226; K8s-native scheduling</text><text fill="#000000" font-family="Helvetica" font-size="11" lengthAdjust="spacing" textLength="151" x="2279" y="692.2339">&#8226; DRA device management</text><text fill="#000000" font-family="Helvetica" font-size="11" lengthAdjust="spacing" textLength="116" x="2279" y="705.0386">&#8226; Elastic autoscaling</text><text fill="#000000" font-family="Helvetica" font-size="11" lengthAdjust="spacing" textLength="168" x="2279" y="717.8433">&#8226; Near real-time observability</text></g><g id="elem_GMN49"><path d="M2498.5,650.6094 L2498.5,713.8281 A5,5 0 0 0 2503.5,718.8281 L2742.5,718.8281 A5,5 0 0 0 2747.5,713.8281 L2747.5,655.6094 L2737.5,645.6094 L2503.5,645.6094 A5,5 0 0 0 2498.5,650.6094 " fill="#FFFFFF" style="stroke:#000000;stroke-width:1.0;"/><path d="M2737.5,645.6094 L2737.5,653.1094 A2.5,2.5 0 0 0 2740,655.6094 L2747.5,655.6094 L2737.5,645.6094 " fill="#FFFFFF" style="stroke:#000000;stroke-width:1.0;"/><text fill="#000000" font-family="Helvetica" font-size="11" font-weight="bold" lengthAdjust="spacing" textLength="163" x="2510.5" y="666.8198">HA Architecture Evolution</text><text fill="#000000" font-family="Helvetica" font-size="11" lengthAdjust="spacing" textLength="205" x="2510.5" y="679.6245">Active community effort to eliminate</text><text fill="#000000" font-family="Helvetica" font-size="11" lengthAdjust="spacing" textLength="216" x="2510.5" y="692.4292">single-point-of-failure via multi-Master</text><text fill="#000000" font-family="Helvetica" font-size="11" lengthAdjust="spacing" textLength="192" x="2510.5" y="705.2339">failover and metadata replication.</text></g><g id="elem_GMN52"><path d="M2782.5,650.6094 L2782.5,713.8281 A5,5 0 0 0 2787.5,718.8281 L2976.5,718.8281 A5,5 0 0 0 2981.5,713.8281 L2981.5,655.6094 L2971.5,645.6094 L2787.5,645.6094 A5,5 0 0 0 2782.5,650.6094 " fill="#FFFFFF" style="stroke:#000000;stroke-width:1.0;"/><path d="M2971.5,645.6094 L2971.5,653.1094 A2.5,2.5 0 0 0 2974,655.6094 L2981.5,655.6094 L2971.5,645.6094 " fill="#FFFFFF" style="stroke:#000000;stroke-width:1.0;"/><text fill="#000000" font-family="Helvetica" font-size="11" font-weight="bold" lengthAdjust="spacing" textLength="119" x="2794.5" y="666.8198">Emerging Backend</text><text fill="#000000" font-family="Helvetica" font-size="11" lengthAdjust="spacing" textLength="166" x="2794.5" y="679.6245">RFC #1773: UB Transport via</text><text fill="#000000" font-family="Helvetica" font-size="11" lengthAdjust="spacing" textLength="141" x="2794.5" y="692.4292">Kunpeng UMDK URMA API</text><text fill="#000000" font-family="Helvetica" font-size="11" lengthAdjust="spacing" textLength="162" x="2794.5" y="705.2339">Target: 400 Gbps saturation</text></g><g id="elem_GMN55"><path d="M2008.5,1019.6094 L2008.5,1082.8281 A5,5 0 0 0 2013.5,1087.8281 L2210.5,1087.8281 A5,5 0 0 0 2215.5,1082.8281 L2215.5,1024.6094 L2205.5,1014.6094 L2116,1014.6094 L2112,951.6994 L2108,1014.6094 L2013.5,1014.6094 A5,5 0 0 0 2008.5,1019.6094 " fill="#FFFFFF" style="stroke:#000000;stroke-width:1.0;"/><path d="M2205.5,1014.6094 L2205.5,1022.1094 A2.5,2.5 0 0 0 2208,1024.6094 L2215.5,1024.6094 L2205.5,1014.6094 " fill="#FFFFFF" style="stroke:#000000;stroke-width:1.0;"/><text fill="#000000" font-family="Helvetica" font-size="11" font-weight="bold" lengthAdjust="spacing" textLength="121" x="2020.5" y="1035.8198">Ascend A5 (950DT)</text><text fill="#000000" font-family="Helvetica" font-size="11" lengthAdjust="spacing" textLength="141" x="2020.5" y="1048.6245">144 GB HBM / 4 TB/s BW</text><text fill="#000000" font-family="Helvetica" font-size="11" lengthAdjust="spacing" textLength="174" x="2020.5" y="1061.4292">8192 cards / 16.3 PB/s cluster</text><text fill="#000000" font-family="Helvetica" font-size="11" lengthAdjust="spacing" textLength="153" x="2020.5" y="1074.2339">Lingqu UB full peer-to-peer</text></g><!--link ENGINES to CLIENT--><g id="link_ENGINES_CLIENT"><path d="M446.2703,184.0596 C446.5582,184.2844 446.8532,184.5146 447.155,184.7502 C447.7585,185.2214 448.3895,185.714 449.0472,186.2274 C450.3625,187.2541 451.7845,188.3642 453.3073,189.553 C456.3529,191.9304 459.8016,194.6225 463.6061,197.5923 C478.8241,209.4716 499.7344,225.7938 523.3063,244.1931 C570.45,280.9919 623.5101,322.4077 667.7001,356.8977 " fill="none" id="ENGINES-to-CLIENT" style="stroke:#000000;stroke-width:1.0;"/><polygon fill="#000000" points="672.43,360.5894,667.7963,351.8987,668.4884,357.513,662.8741,358.2052,672.43,360.5894" style="stroke:#000000;stroke-width:1.0;"/><text fill="#000000" font-family="Helvetica" font-size="11" lengthAdjust="spacing" textLength="49" x="560" y="252.8198">KVCache</text><text fill="#000000" font-family="Helvetica" font-size="11" lengthAdjust="spacing" textLength="42" x="563.5" y="265.6245">Put/Get</text></g><!--link CLIENT to MASTER--><g id="link_CLIENT_MASTER"><path d="M666.16,432.9894 C630.54,445.1994 591.18,465.6994 570,499.6094 C546.36,537.4594 549.6516,583.0728 558.5216,621.5328 " fill="none" id="CLIENT-to-MASTER" style="stroke:#000000;stroke-width:1.0;"/><polygon fill="#000000" points="559.87,627.3794,561.7451,617.7107,558.7464,622.5073,553.9497,619.5085,559.87,627.3794" style="stroke:#000000;stroke-width:1.0;"/><text fill="#000000" font-family="Helvetica" font-size="11" lengthAdjust="spacing" textLength="52" x="585" y="516.8198">Metadata</text><text fill="#000000" font-family="Helvetica" font-size="11" lengthAdjust="spacing" textLength="68" x="577" y="529.6245">Registration</text></g><!--link CLIENT to L1--><g id="link_CLIENT_L1"><path d="M680.48,469.7494 C663.08,491.6094 652.51,516.8194 668,538.6094 C674.27,547.4294 683.05,539.2594 691,546.6094 C726.95,579.8394 741.0101,632.9906 746.3701,660.4406 " fill="none" id="CLIENT-to-L1" style="stroke:#000000;stroke-width:1.0;"/><polygon fill="#000000" points="747.52,666.3294,749.7211,656.7296,746.5618,661.4221,741.8693,658.2628,747.52,666.3294" style="stroke:#000000;stroke-width:1.0;"/><text fill="#000000" font-family="Helvetica" font-size="11" lengthAdjust="spacing" textLength="86" x="675" y="523.3198">Device Memory</text></g><!--link CLIENT to L2--><g id="link_CLIENT_L2"><path d="M762.87,469.7694 C774.17,492.8894 789.68,519.0494 809,538.6094 C814.04,543.7094 817.99,541.4894 823,546.6094 C858.49,582.8794 879.649,634.2464 889.119,660.8664 " fill="none" id="CLIENT-to-L2" style="stroke:#000000;stroke-width:1.0;"/><polygon fill="#000000" points="891.13,666.5194,891.8821,656.6993,889.4541,661.8086,884.3448,659.3806,891.13,666.5194" style="stroke:#000000;stroke-width:1.0;"/><text fill="#000000" font-family="Helvetica" font-size="11" lengthAdjust="spacing" textLength="75" x="816" y="523.3198">Host Memory</text></g><!--link CLIENT to L3--><g id="link_CLIENT_L3"><path d="M815.77,424.1694 C869.97,433.7094 941.6,454.4794 988,499.6094 C1036.64,546.9194 1049.6023,626.6023 1053.1823,660.6323 " fill="none" id="CLIENT-to-L3" style="stroke:#000000;stroke-width:1.0;"/><polygon fill="#000000" points="1053.81,666.5994,1056.8464,657.2303,1053.2869,661.6268,1048.8903,658.0673,1053.81,666.5994" style="stroke:#000000;stroke-width:1.0;"/><text fill="#000000" font-family="Helvetica" font-size="11" lengthAdjust="spacing" textLength="107" x="1023" y="523.3198">Persistent Storage</text></g><!--link CLIENT to TRANSPORT--><g id="link_CLIENT_TRANSPORT"><path d="M815.51,415.1094 C913.86,415.1094 1082.04,415.1094 1197.77,415.1094 " fill="none" id="CLIENT-to-TRANSPORT" style="stroke:#000000;stroke-width:1.0;"/><polygon fill="#000000" points="1203.77,415.1094,1194.77,411.1094,1198.77,415.1094,1194.77,419.1094,1203.77,415.1094" style="stroke:#000000;stroke-width:1.0;"/><text fill="#000000" font-family="Helvetica" font-size="11" lengthAdjust="spacing" textLength="58" x="980.75" y="390.3198">Zero-copy</text><text fill="#000000" font-family="Helvetica" font-size="11" lengthAdjust="spacing" textLength="49" x="985.25" y="403.1245">Transfer</text></g><!--link TRANSPORT to BACKENDS--><g id="link_TRANSPORT_BACKENDS"><path d="M1284,469.8894 C1270.35,492.6694 1255.96,520.0394 1247,546.6094 C1245.8131,550.1288 1244.7004,553.7242 1243.6572,557.373 C1243.3964,558.2852 1243.1399,559.2007 1242.8877,560.1192 C1242.7616,560.5785 1242.6366,561.0385 1242.5126,561.4992 C1242.4506,561.7296 1243.9334,556.1623 1243.8719,556.393 " fill="none" id="TRANSPORT-to-BACKENDS" style="stroke:#000000;stroke-width:1.0;"/><polygon fill="#000000" points="1242.3275,562.1908,1248.5094,554.5237,1243.6145,557.3593,1240.779,552.4644,1242.3275,562.1908" style="stroke:#000000;stroke-width:1.0;"/></g><!--link RDMA to NVIDIA--><g id="link_RDMA_NVIDIA"><path d="M1465.97,723.7994 C1477.12,745.7794 1493.78,771.6194 1516,787.6094 C1566.22,823.7494 1589.97,811.4494 1651,821.6094 C1672.12,825.1194 1728.15,819.4694 1747,829.6094 C1779.18,846.9094 1799.779,878.4581 1812.149,901.9981 " fill="none" id="RDMA-to-NVIDIA" style="stroke:#000000;stroke-width:1.0;"/><polygon fill="#000000" points="1814.94,907.3094,1814.2943,897.4817,1812.6141,902.8833,1807.2126,901.2031,1814.94,907.3094" style="stroke:#000000;stroke-width:1.0;"/></g><!--link NVL to NVIDIA--><g id="link_NVL_NVIDIA"><path d="M1591.6,717.2094 C1602.13,739.8194 1618.69,768.7194 1641,787.6094 C1650.67,795.7994 1736.84,822.0394 1747,829.6094 C1775.6,850.9194 1796.2699,880.1105 1809.7899,902.2205 " fill="none" id="NVL-to-NVIDIA" style="stroke:#000000;stroke-width:1.0;"/><polygon fill="#000000" points="1812.92,907.3394,1811.6374,897.5744,1810.3116,903.0737,1804.8123,901.7479,1812.92,907.3394" style="stroke:#000000;stroke-width:1.0;"/></g><!--link ASCEND to ASCENDHW--><g id="link_ASCEND_ASCENDHW"><path d="M2112,717.2494 C2112,768.7594 2112,858.8594 2112,901.4094 " fill="none" id="ASCEND-to-ASCENDHW" style="stroke:#000000;stroke-width:1.0;"/><polygon fill="#000000" points="2112,907.4094,2116,898.4094,2112,902.4094,2108,898.4094,2112,907.4094" style="stroke:#000000;stroke-width:1.0;"/></g><!--link HIP to AMD--><g id="link_HIP_AMD"><path d="M1972.33,717.2494 C1969.81,768.7594 1965.413,858.8665 1963.333,901.4165 " fill="none" id="HIP-to-AMD" style="stroke:#000000;stroke-width:1.0;"/><polygon fill="#000000" points="1963.04,907.4094,1967.4747,898.6154,1963.2841,902.4153,1959.4842,898.2248,1963.04,907.4094" style="stroke:#000000;stroke-width:1.0;"/></g><!--link UB to KUNPENG--><g id="link_UB_KUNPENG"><path d="M1333.24,717.2694 C1346.01,738.5494 1363.89,765.9094 1383,787.6094 C1425.07,835.3694 1478.5148,878.1063 1513.0848,903.9563 " fill="none" id="UB-to-KUNPENG" style="stroke:#000000;stroke-width:1.0;"/><polygon fill="#000000" points="1517.89,907.5494,1513.0777,898.9563,1513.8857,904.5551,1508.2869,905.3632,1517.89,907.5494" style="stroke:#000000;stroke-width:1.0;"/></g><!--link NVME to L3--><g id="link_NVME_L3"><path d="M1700.74,652.8694 C1693.16,612.8794 1673.15,542.5994 1623.5,512.1094 C1548.89,466.2894 1310.61,479.1294 1229.5,512.1094 C1150.75,544.1294 1091.3677,625.6438 1068.0777,661.3538 " fill="none" id="NVME-to-L3" style="stroke:#000000;stroke-width:1.0;"/><polygon fill="#000000" points="1064.8,666.3794,1073.0669,661.0261,1067.5314,662.1914,1066.3661,656.6558,1064.8,666.3794" style="stroke:#000000;stroke-width:1.0;"/></g><!--link CXL to NVIDIA--><g id="link_CXL_NVIDIA"><path d="M1837.39,711.2694 C1834.56,761.0194 1829.0618,857.3791 1826.5418,901.5491 " fill="none" id="CXL-to-NVIDIA" style="stroke:#000000;stroke-width:1.0;"/><polygon fill="#000000" points="1826.2,907.5394,1830.7061,898.7818,1826.4848,902.5475,1822.7191,898.3261,1826.2,907.5394" style="stroke:#000000;stroke-width:1.0;"/></g><!--link MASTER to INFERNEX--><g id="link_MASTER_INFERNEX"><path d="M602.95,627.4694 C619.95,598.1594 645.14,564.4794 678,546.6094 C798.6,481.0294 849.23,530.7494 986.5,531.6094 C1252.4,533.2794 1931.34,460.7194 2183,546.6094 C2230.94,562.9694 2276.44,597.4494 2309.7,627.5394 " fill="none" id="MASTER-INFERNEX" style="stroke:#000000;stroke-width:1.0;stroke-dasharray:7.0,7.0;"/><text fill="#000000" font-family="Helvetica" font-size="11" lengthAdjust="spacing" textLength="21" x="935.5" y="516.8198">K8s</text><text fill="#000000" font-family="Helvetica" font-size="11" lengthAdjust="spacing" textLength="67" x="912.5" y="529.6245">Deployment</text></g><!--link INFERNEX to ASCENDHW--><g id="link_INFERNEX_ASCENDHW"><path d="M2308.23,736.6794 C2253.41,790.2994 2171.87,870.0494 2133.47,907.6094 " fill="none" id="INFERNEX-ASCENDHW" style="stroke:#000000;stroke-width:1.0;stroke-dasharray:7.0,7.0;"/><text fill="#000000" font-family="Helvetica" font-size="11" lengthAdjust="spacing" textLength="78" x="2252" y="812.8198">NPU Operator</text></g><!--link MASTER to GMN49--><g id="link_MASTER_GMN49"><path d="M598.43,627.5594 C617.38,587.5794 649.25,536.2494 695.5,512.1094 C782.48,466.7194 2371.35,473.4094 2461.5,512.1094 C2524.53,539.1694 2574.55,604.2594 2601.39,645.5894 " fill="none" id="MASTER-GMN49" style="stroke:#000000;stroke-width:1.0;stroke-dasharray:7.0,7.0;"/></g><!--link UB to GMN52--><g id="link_UB_GMN52"><path d="M1320.56,647.0494 C1330.24,606.4594 1352.65,541.4494 1400.5,512.1094 C1464.3,472.9894 2680.14,479.5094 2747.5,512.1094 C2804.41,539.6494 2844.55,604.2594 2865.42,645.4194 " fill="none" id="UB-GMN52" style="stroke:#000000;stroke-width:1.0;stroke-dasharray:7.0,7.0;"/></g><!--SRC=[bLRRRkCs47tNLqoJXpef5D-IJUA70h8anqPinP2SD6ZT1rgc7NObqgLexxh50liH_O9-Mh-aGrA-n7PHRExXd27dUcQ-Ksyqfx382EDEyP7n1P4aXmb9FywbMFAfBp8XuRmJwiyzn9JEo39J7S5LmlwWKA-V5aO4h-_IR4KLIyaU9XNvGd2AwcgTKP0qLOJFCxe7MP3fbF4vVDWxAusId4gernn7CONQ0o5uIZxI5Zo- -2HzewwFDqkMGi0ACfzBEYUAJg7V7q12vKhVwidqZIbyTYcfutmF__pr5RyCfCTdL5AUKWZvd75Qb49dWN4XSmfd9r5dG0e8euTU52Pm7jvrRi9x-DC1_DXw2x-iK7VC7r_05vpZyqB-glNqyI4qUUXZJCQyounJ1cVF3f4ZoWiXuv6BjnZOA1uTOlg3tItuzx4ue8jCh4jvu7pPYyecm92WlVGe7E_59Wx9w2aECGhDJgCJ74TXG0g5AJJ9IEcOsnl_zmk1N_-6fybl63X8y7tC_JnNzZX6-x78CB12Ok4GnGItaW5LP4eKWGfLwRGQqoahBgoewq65SLX8WLLI51V6_O6NZC8Opjlj8EoqdQEyc23u6SF_lj7quL915Hwe_XdJNAneQI7s2tEbzS0UzIafA0obq4MwTIKHCmL3nesTVhyNHgFtTce_9rhpR83topMC69MsDaUzC4xAN1YNY9nYBTTRy31yXfVO6nXOluuDt_63e768RBJ0HsImHJOqidFlNnyYcor8aW2TZ5u6r1KT2s_2kNyNVl3l3VpBkn8RIS8BxAYoc_wxnWw0rhFG6D8CQyUbPl0B8HLuaq99iWdcjwGjeVDSNrPPSZPZo2H8JRfSeD0rM9PIcwZqRMjTfKY9mXgl8lMyKLbYHcA1Z3fVk-GJmHeQeWmlp_OpR4iXwldWbSo5ehAflIWPFiKZxMnOQpTinhSXsddQnYFAfpRjRSz_3ACWsMZjLy0kJ74myCQyrwx6mWzNZUgOKtrKnT8Oyu1fWZP6wCDJ-j5Bd_6FU0CIBt6vc69bewwBtqOFvQVKl295Gy4-W5JNU-rNlU2rF-OHAaUbifVuwC4f_MvlEERU883uoS_DYqO1Zq-X_TS-e6V96mP_YhIGspPwxP_so9Gkmh6IEsI2ywJqP12UmZ-tgy-n3Y86OlxxSimhSSU7y_hjRTFIodCR2R7U3iFR4_NVnSOnDT4dQooVm_BVYeSPKJCXSvlRxa-OrMPuqxdP5Bxfl-Yb5_GyCBchTEkrMhNRg5MzUktYp7fWnET-UDyCxlRqocn4Mk- -NlChNlEYUdzJ2qOLxyRgsbJeTu-rCGtsIPsC4evdnyZ1g1k7Nf0WTF2SU1QwEJo1Vrpo1SMXxUlRVz21jFamUe_FqH37xbPjFwf-9fPJDy8UMXrJoZiXRWguCKoMkjlCjNw4sQfrRZlUCQUOsH_HpqXmduVhu1lPvF6kSBbzjS29F5rcJ8zvBK9gnVL9pqJ82KShSpjZK1HcE3DnfI5B9P1RTZeH9H8NA9AvYk6s9IO5JbKoOHbJTfhteauOH-4h3ef6sEuqtaKeffbXcEADBRQBpcQBSQVY4tT_t0oQxNurvZZ8gZZ6d5Ao0PQJixKTkMCUqxaEhNda48wZfWM1zTUEgoD40n5TKQZ_aZTHFiG9Xs_erEZPZ65pjZZ9vcyAWJloRC7FL0et5Olrc6_usjd9DrTlUDDnDETjZstpECXdXqUsDRQdcqvna8nsXxXPOVbk_Yrhrz6SikUJeudgu7QdZEsLyUXgbzMMBYZaQBE-wNfnjg8hVSNLhcTRkhNXQK4n7K8w3iVb0inz86Pbyh3MBoznBTfVa25SYSoqnkKbohtK52ysH8u3KQs1pcPwx2W1D6EvthqemWgcDtft8HXNhfYvCy8oVTcA4SZDbBDh84Ar29SX2GJf9z-iQ-K-fD-zSZGnQNiFhNvk6ul3dCgvNkpBsMSCtH9mItF6RZwY1IZTiChp87W4JTtW3NjuFY9oJbKBhcirU9XWLnG4Ws0B-C2AYL1AvDgCRRQrCIMFUZTGCUnvOQofNr_3GnkwxG7onZMCsbKSpbhXhdxVC4nNeA3-uQe9GorBisKP7ZjHj0-pPPR1WbBfAk7gtpkB_WK0]--></g></svg>